<svg width="189" height="45" viewBox="0 0 189 45" fill="none" xmlns="http://www.w3.org/2000/svg">
<path d="M163.51 22.9493V22.6037C163.51 16.6133 166.246 13.6181 171.718 13.6181C177.209 13.6181 179.955 16.6133 179.955 22.6037C179.955 28.8629 177.209 31.9925 171.718 31.9925C166.246 31.9925 163.51 28.9781 163.51 22.9493ZM168.233 22.8341V23.0933C168.233 26.2997 169.395 27.9029 171.718 27.9029C174.06 27.9029 175.231 26.1941 175.231 22.7765C175.231 19.8389 174.06 18.3701 171.718 18.3701C169.395 18.3701 168.233 19.8581 168.233 22.8341Z" fill="white"/>
<path d="M153.755 35.3334V32.0502C154.311 32.3766 154.811 32.5398 155.252 32.5398C156.462 32.5398 157.067 31.647 157.067 29.8614V14.1942C157.988 14.3094 158.823 14.367 159.572 14.367C160.263 14.367 161.089 14.3094 162.049 14.1942V30.8118C162.049 34.191 160.494 35.8806 157.383 35.8806C156.193 35.8806 154.983 35.6982 153.755 35.3334Z" fill="white"/>
<path d="M139.195 22.9493V22.6037C139.195 16.6133 141.931 13.6181 147.403 13.6181C152.894 13.6181 155.639 16.6133 155.639 22.6037C155.639 28.8629 152.894 31.9925 147.403 31.9925C141.931 31.9925 139.195 28.9781 139.195 22.9493ZM143.918 22.8341V23.0933C143.918 26.2997 145.079 27.9029 147.403 27.9029C149.745 27.9029 150.916 26.1941 150.916 22.7765C150.916 19.8389 149.745 18.3701 147.403 18.3701C145.079 18.3701 143.918 19.8581 143.918 22.8341Z" fill="white"/>
<path d="M112.273 31.503V14.1654H117.14L117.111 15.9222C117.111 16.1526 117.102 16.4598 117.083 16.8438C117.063 17.2086 117.025 17.6214 116.967 18.0822L117.169 18.111C117.745 15.231 119.463 13.791 122.324 13.791C123.783 13.791 124.945 14.1942 125.809 15.0006C126.692 15.7878 127.134 16.8438 127.134 18.1686H127.364C127.575 16.7862 128.142 15.711 129.063 14.943C130.004 14.175 131.204 13.791 132.663 13.791C133.796 13.791 134.795 14.079 135.659 14.655C137.022 15.5766 137.703 17.1414 137.703 19.3494V31.503H132.692V21.5382C132.692 20.9238 132.654 20.4342 132.577 20.0694C132.347 18.8982 131.617 18.3126 130.388 18.3126C129.524 18.3126 128.814 18.6582 128.257 19.3494C127.758 20.0214 127.508 20.9526 127.508 22.143V31.503H122.497V21.4806C122.497 19.4646 121.729 18.4566 120.193 18.4566C119.329 18.4566 118.628 18.8118 118.091 19.5222C117.572 20.2134 117.313 21.135 117.313 22.287V31.503H112.273Z" fill="white"/>
<path d="M94.2444 23.0646V22.719C94.2444 16.7286 96.9804 13.7334 102.452 13.7334C107.944 13.7334 110.689 16.7286 110.689 22.719C110.689 28.9782 107.944 32.1078 102.452 32.1078C96.9804 32.1078 94.2444 29.0934 94.2444 23.0646ZM98.9676 22.9494V23.2086C98.9676 26.415 100.129 28.0182 102.452 28.0182C104.795 28.0182 105.966 26.3094 105.966 22.8918C105.966 19.9542 104.795 18.4854 102.452 18.4854C100.129 18.4854 98.9676 19.9734 98.9676 22.9494Z" fill="white"/>
<path d="M82.2104 31.6181V14.2805H86.9336L86.9048 16.6709C86.9048 17.1317 86.8952 17.4869 86.876 17.7365C86.8568 17.9861 86.7895 18.4757 86.6743 19.2053L86.9336 19.2341C87.3176 15.7013 88.8056 13.9349 91.3976 13.9349C92.2808 13.9349 93.1064 14.1749 93.8744 14.6549L93.644 20.1557C92.78 19.2341 91.8583 18.7733 90.8791 18.7733C89.6887 18.7733 88.7576 19.3493 88.0856 20.5013C87.4904 21.5957 87.1928 23.2085 87.1928 25.3397V31.6181H82.2104Z" fill="white"/>
<path d="M80.761 15.8069V20.9045C79.2442 19.3301 77.6026 18.5429 75.8362 18.5429C74.5498 18.5429 73.5514 18.9461 72.841 19.7525C72.1306 20.5397 71.7754 21.6725 71.7754 23.1509C71.7754 24.5909 72.1306 25.7333 72.841 26.5781C73.5706 27.4037 74.5594 27.8165 75.8074 27.8165C77.6122 27.8165 79.2442 26.8565 80.7034 24.9365V29.2565C79.321 31.0997 77.3434 32.0213 74.7706 32.0213C72.3322 32.0213 70.4026 31.1861 68.9818 29.5157C67.561 27.8453 66.8506 25.5893 66.8506 22.7477C66.8506 19.9061 67.561 17.6885 68.9818 16.0949C70.4026 14.4821 72.3802 13.6757 74.9146 13.6757C77.1418 13.6757 79.0906 14.3861 80.761 15.8069Z" fill="white"/>
<path d="M172.573 24.4511V24.3721C172.573 23.0028 173.172 22.3182 174.37 22.3182C175.572 22.3182 176.173 23.0028 176.173 24.3721C176.173 25.8028 175.572 26.5182 174.37 26.5182C173.172 26.5182 172.573 25.8291 172.573 24.4511Z" fill="white"/>
<path d="M147.973 24.4511V24.3721C147.973 23.0028 148.572 22.3182 149.77 22.3182C150.972 22.3182 151.573 23.0028 151.573 24.3721C151.573 25.8028 150.972 26.5182 149.77 26.5182C148.572 26.5182 147.973 25.8291 147.973 24.4511Z" fill="white"/>
<path fill-rule="evenodd" clip-rule="evenodd" d="M45.2203 15.2117C44.6445 15.2768 44.1572 15.6177 43.8004 16.1218L43.7985 16.1238C43.2773 16.8736 43.0211 18.0212 43.1461 19.2595L43.1744 19.49C43.3324 20.6297 43.79 21.6389 44.4039 22.282L44.403 22.283C44.8672 22.7748 45.4456 23.0711 46.0631 23.0476C46.6911 23.0235 47.2274 22.6703 47.6041 22.1248C48.1247 21.3749 48.3805 20.2277 48.2555 18.99C48.1304 17.7572 47.6543 16.6536 46.9996 15.9675C46.5355 15.4756 45.957 15.1786 45.3395 15.2019H45.3366L45.2203 15.2117ZM45.3844 16.2107C45.6611 16.1974 45.9711 16.3455 46.275 16.6668C46.3422 16.7379 46.4075 16.816 46.4703 16.9002C46.4448 16.8994 46.4189 16.8972 46.3932 16.8982C45.5533 16.9324 44.9676 17.9355 45.0875 19.1375C45.2076 20.3392 45.99 21.2874 46.8297 21.2537C46.875 21.2518 46.9198 21.2454 46.9635 21.2381C46.9089 21.3531 46.8505 21.46 46.7848 21.5545C46.5591 21.8762 46.2945 22.0394 46.026 22.0496C45.7397 22.0597 45.4286 21.9115 45.1276 21.5935L44.9479 21.3816C44.5428 20.8502 44.2344 20.0619 44.1422 19.1599C44.0416 18.1322 44.2486 17.2421 44.6227 16.7049C44.8482 16.3836 45.1123 16.221 45.3805 16.2107H45.3844Z" fill="white"/>
<path fill-rule="evenodd" clip-rule="evenodd" d="M39.153 15.2117C38.5773 15.2767 38.0855 15.6171 37.7321 16.1238C37.2109 16.8736 36.9537 18.0212 37.0787 19.2595L37.1071 19.49C37.265 20.6297 37.7226 21.6389 38.3366 22.282L38.3356 22.283C38.7998 22.7749 39.3782 23.0711 39.9957 23.0476C40.6238 23.0236 41.1599 22.6704 41.5368 22.1248C42.0574 21.3749 42.3132 20.2277 42.1881 18.99C42.063 17.7572 41.587 16.6536 40.9323 15.9675C40.4681 15.4755 39.8897 15.1785 39.2721 15.2019H39.2692L39.153 15.2117ZM39.3121 16.2107C39.5942 16.1972 39.9042 16.3456 40.2018 16.6648L40.2028 16.6668C40.2699 16.7378 40.3343 16.8162 40.3971 16.9002C40.372 16.8994 40.3462 16.8972 40.3209 16.8982C39.4812 16.9326 38.8953 17.9356 39.0153 19.1375C39.1353 20.339 39.9178 21.2881 40.7575 21.2547C40.8023 21.2528 40.847 21.2463 40.8903 21.239C40.8358 21.3536 40.778 21.4603 40.7125 21.5545L40.6266 21.6677C40.4212 21.9147 40.1888 22.0407 39.9537 22.0496C39.6674 22.0597 39.3563 21.9116 39.0553 21.5935C38.5637 21.0731 38.1753 20.1907 38.07 19.1599C37.9694 18.1322 38.1763 17.2421 38.5504 16.7049C38.7479 16.4235 38.9752 16.2637 39.2086 16.2215L39.3092 16.2107H39.3121Z" fill="white"/>
<path fill-rule="evenodd" clip-rule="evenodd" d="M39.9977 3.04567C39.8975 3.07026 39.8002 3.10449 39.7086 3.14821C19.381 10.3692 6.63149 25.1214 6.60414 25.1531L18.234 22.1453C10.5401 27.9756 4.46254 37.2127 4.46254 37.2127L20.2116 35.0076L16.5114 39.7771C37.1444 32.1643 53.4593 33.3016 53.6237 33.3132C54.0605 33.3758 54.4818 33.181 54.817 32.8757C55.2418 32.4883 55.4083 31.8918 55.2448 31.3406L52.5377 22.2263L57.7379 15.2498L57.8463 15.0838C58.0698 14.6832 58.099 14.1974 57.9176 13.7683C57.7102 13.278 57.258 12.934 56.7301 12.865L47.3356 11.6375L41.5709 3.62477L41.4391 3.46559C41.1093 3.11978 40.6296 2.94795 40.1481 3.01442C40.1428 3.01521 40.1367 3.01657 40.1315 3.01735L40.1237 3.00075C40.0819 3.01531 40.0394 3.03106 39.9977 3.04567ZM46.4987 13.0408L56.5368 14.3523L50.8854 21.9324L53.8073 31.7674L44.1676 27.9099L35.9371 32.6795L35.6325 22.7146L27.6207 15.825L37.068 13.5222L40.3541 4.49977L46.4987 13.0408ZM23.5983 26.8318C24.2558 28.0043 25.5763 28.6216 26.8864 28.3787C25.7349 29.0503 25.1202 30.3845 25.36 31.7127C24.6977 30.545 23.382 29.9218 22.0719 30.1648C23.2233 29.4932 23.838 28.1599 23.5983 26.8318ZM25.2008 19.6316C25.7095 20.5268 26.7183 21.0036 27.7164 20.8191C26.8339 21.3302 26.3634 22.3522 26.5455 23.3689C26.0416 22.4737 25.0329 21.9967 24.0299 22.1814C24.9127 21.6704 25.3829 20.6484 25.2008 19.6316Z" fill="white"/>
</svg>
