<svg width="1563" height="370" viewBox="0 0 1563 370" fill="none" xmlns="http://www.w3.org/2000/svg">
<g clip-path="url(#clip0_2023_4437)">
<path d="M267.026 343.221C241.769 356.49 213.012 364 182.5 364C151.988 364 123.231 356.49 97.9736 343.221H267.026Z" fill="black"/>
<path d="M267.026 343.221C241.769 356.49 213.012 364 182.5 364C151.988 364 123.231 356.49 97.9736 343.221H267.026Z" fill="black"/>
<path d="M267.026 343.221C241.769 356.49 213.012 364 182.5 364C151.988 364 123.231 356.49 97.9736 343.221H267.026Z" fill="black"/>
<path d="M328.687 290.428C322.237 299.109 315.032 307.196 307.169 314.592H57.8311C49.9683 307.196 42.7633 299.109 36.3135 290.428H328.687Z" fill="black"/>
<path d="M328.687 290.428C322.237 299.109 315.032 307.196 307.169 314.592H57.8311C49.9683 307.196 42.7633 299.109 36.3135 290.428H328.687Z" fill="black"/>
<path d="M328.687 290.428C322.237 299.109 315.032 307.196 307.169 314.592H57.8311C49.9683 307.196 42.7633 299.109 36.3135 290.428H328.687Z" fill="black"/>
<path d="M355.836 237.637C353.164 245.969 349.907 254.04 346.114 261.801H18.8857C15.0932 254.04 11.8365 245.969 9.16406 237.637H355.836Z" fill="black"/>
<path d="M355.836 237.637C353.164 245.969 349.907 254.04 346.114 261.801H18.8857C15.0932 254.04 11.8365 245.969 9.16406 237.637H355.836Z" fill="black"/>
<path d="M355.836 237.637C353.164 245.969 349.907 254.04 346.114 261.801H18.8857C15.0932 254.04 11.8365 245.969 9.16406 237.637H355.836Z" fill="black"/>
<path d="M182.5 0C186.272 0 190.017 0.116606 193.731 0.342773V128.651C193.734 129.054 195.296 128.653 200.813 130.593L264.266 19.3604C271.978 23.2454 279.377 27.6617 286.413 32.5635L222.847 141.836C222.075 144.182 225.132 147.882 227.823 147.721C258.642 131.123 317.944 94.9173 335.846 83.9336C340.461 91.1359 344.581 98.6855 348.162 106.533L241.159 169.531C238.834 170.724 241.506 178.126 242.653 178.126H364.456C364.483 179.414 364.5 180.705 364.5 182C364.5 189.231 364.076 196.363 363.256 203.374H216.456C224.36 176.296 204.535 149.926 176.527 152.989C159.125 154.89 144.76 170.796 144.256 188.683C144.108 193.849 144.633 198.538 145.662 203.374H1.74414C0.923994 196.363 0.5 189.231 0.5 182C0.5 180.705 0.517046 179.414 0.543945 178.126H120.087C121.155 178.125 123.034 170.92 122.491 170.148L16.1357 108.092C19.6315 100.235 23.6663 92.6711 28.1953 85.4482L134.373 148.449L139.903 143.808L77.165 33.5615C84.3859 28.4282 91.9984 23.8105 99.9473 19.7578L161.203 130.593C161.626 130.893 169.008 129.057 169.019 128.651V0.493164C173.47 0.167238 177.966 0 182.5 0Z" fill="black"/>
<path d="M182.5 0C186.272 0 190.017 0.116606 193.731 0.342773V128.651C193.734 129.054 195.296 128.653 200.813 130.593L264.266 19.3604C271.978 23.2454 279.377 27.6617 286.413 32.5635L222.847 141.836C222.075 144.182 225.132 147.882 227.823 147.721C258.642 131.123 317.944 94.9173 335.846 83.9336C340.461 91.1359 344.581 98.6855 348.162 106.533L241.159 169.531C238.834 170.724 241.506 178.126 242.653 178.126H364.456C364.483 179.414 364.5 180.705 364.5 182C364.5 189.231 364.076 196.363 363.256 203.374H216.456C224.36 176.296 204.535 149.926 176.527 152.989C159.125 154.89 144.76 170.796 144.256 188.683C144.108 193.849 144.633 198.538 145.662 203.374H1.74414C0.923994 196.363 0.5 189.231 0.5 182C0.5 180.705 0.517046 179.414 0.543945 178.126H120.087C121.155 178.125 123.034 170.92 122.491 170.148L16.1357 108.092C19.6315 100.235 23.6663 92.6711 28.1953 85.4482L134.373 148.449L139.903 143.808L77.165 33.5615C84.3859 28.4282 91.9984 23.8105 99.9473 19.7578L161.203 130.593C161.626 130.893 169.008 129.057 169.019 128.651V0.493164C173.47 0.167238 177.966 0 182.5 0Z" fill="black"/>
<path d="M182.5 0C186.272 0 190.017 0.116606 193.731 0.342773V128.651C193.734 129.054 195.296 128.653 200.813 130.593L264.266 19.3604C271.978 23.2454 279.377 27.6617 286.413 32.5635L222.847 141.836C222.075 144.182 225.132 147.882 227.823 147.721C258.642 131.123 317.944 94.9173 335.846 83.9336C340.461 91.1359 344.581 98.6855 348.162 106.533L241.159 169.531C238.834 170.724 241.506 178.126 242.653 178.126H364.456C364.483 179.414 364.5 180.705 364.5 182C364.5 189.231 364.076 196.363 363.256 203.374H216.456C224.36 176.296 204.535 149.926 176.527 152.989C159.125 154.89 144.76 170.796 144.256 188.683C144.108 193.849 144.633 198.538 145.662 203.374H1.74414C0.923994 196.363 0.5 189.231 0.5 182C0.5 180.705 0.517046 179.414 0.543945 178.126H120.087C121.155 178.125 123.034 170.92 122.491 170.148L16.1357 108.092C19.6315 100.235 23.6663 92.6711 28.1953 85.4482L134.373 148.449L139.903 143.808L77.165 33.5615C84.3859 28.4282 91.9984 23.8105 99.9473 19.7578L161.203 130.593C161.626 130.893 169.008 129.057 169.019 128.651V0.493164C173.47 0.167238 177.966 0 182.5 0Z" fill="black"/>
<path d="M1394.6 369.784C1350.16 369.784 1325.22 344.31 1325.22 309.622C1325.22 274.392 1351.78 252.17 1389.18 235.368L1484.03 193.092C1482.4 162.198 1467.77 139.434 1426.58 139.434C1389.18 139.434 1364.25 161.114 1350.7 189.84L1318.72 156.778C1334.44 129.678 1373.46 96.6157 1432 96.6157C1496.5 96.6157 1531.18 135.098 1531.18 197.428V305.286C1531.18 317.752 1536.06 321.546 1545.82 321.546H1562.62V364.364H1532.27C1505.17 364.364 1485.66 351.356 1485.66 314.5V296.072C1476.98 330.76 1448.8 369.784 1394.6 369.784ZM1372.92 302.034C1372.92 319.92 1385.39 330.76 1409.78 330.76C1454.22 330.76 1485.66 301.492 1485.66 263.552V227.238L1409.23 263.01C1384.3 274.934 1372.92 285.774 1372.92 302.034Z" fill="black"/>
<path d="M1112.17 364.364H1065.02V102.036H1112.17V171.954C1122.47 131.304 1150.65 96.6157 1202.14 96.6157C1253.63 96.6157 1285.61 127.51 1285.61 183.336V364.364H1239V194.718C1239 160.572 1225.45 136.724 1181.01 136.724C1130.6 136.724 1112.17 171.954 1112.17 215.856V364.364Z" fill="black"/>
<path d="M872.536 369.784C821.046 369.784 789.068 338.89 789.068 283.606V102.036H835.68V272.224C835.68 305.828 849.23 330.218 893.674 330.218C944.622 330.218 963.05 294.446 963.05 251.086V102.036H1009.66V364.364H963.05V292.82C953.294 334.012 925.11 369.784 872.536 369.784Z" fill="black"/>
<path d="M489.55 364.364H442.396V1.22363H489.55V157.32H680.876V1.22363H728.03V364.364H680.876V199.054H489.55V364.364Z" fill="black"/>
</g>
<defs>
<clipPath id="clip0_2023_4437">
<rect width="1563" height="370" fill="white"/>
</clipPath>
</defs>
</svg>
