<svg width="135" height="48" viewBox="0 0 135 48" fill="none" xmlns="http://www.w3.org/2000/svg">
<path d="M45.5083 19.2125H48.1347V29.8489H45.5083V19.2125ZM49.1819 25.848C49.1819 23.2135 50.8183 21.6344 53.2728 21.6344C55.7274 21.6344 57.3638 23.2135 57.3638 25.848C57.3638 28.4825 55.7847 30.078 53.2728 30.078C50.761 30.078 49.1819 28.5398 49.1819 25.848ZM54.7619 25.848C54.7619 24.3998 54.1974 23.5489 53.2974 23.5489C52.3974 23.5489 51.841 24.3671 51.841 25.848C51.841 27.3289 52.3974 28.1389 53.2974 28.1389C54.1974 28.1389 54.7783 27.3289 54.7783 25.8562L54.7619 25.848ZM58.411 30.3971H60.9474C61.0628 30.6701 61.2645 30.898 61.5216 31.0457C61.7787 31.1934 62.077 31.253 62.371 31.2153C63.3774 31.2153 63.901 30.6753 63.901 29.8735V28.4007H63.9092C63.6925 28.8593 63.342 29.2415 62.9039 29.4971C62.4658 29.7527 61.9605 29.8696 61.4547 29.8325C59.5319 29.8325 58.2556 28.368 58.2556 25.848C58.2556 23.328 59.4747 21.7571 61.5283 21.7571C62.0471 21.7294 62.5618 21.8631 63.0014 22.1401C63.441 22.417 63.7839 22.8235 63.9828 23.3035H63.9092V21.8225H66.511V29.7916C66.511 31.7144 64.8092 32.9171 62.3056 32.9171C60.031 32.9089 58.5747 31.8698 58.4274 30.4053L58.411 30.3971ZM63.9092 25.848C63.9092 24.5635 63.3201 23.7535 62.3874 23.7535C61.4547 23.7535 60.8819 24.5716 60.8819 25.848C60.8819 27.1244 61.4465 27.8771 62.3874 27.8771C63.3283 27.8771 63.9092 27.1816 63.9092 25.848ZM67.5501 25.848C67.5501 23.2135 69.1865 21.6344 71.641 21.6344C74.0956 21.6344 75.7319 23.2135 75.7319 25.848C75.7319 28.4825 74.1447 30.078 71.641 30.078C69.1374 30.078 67.5665 28.5398 67.5665 25.848H67.5501ZM73.1301 25.848C73.1301 24.3998 72.5574 23.5489 71.6656 23.5489C70.7738 23.5489 70.2092 24.3671 70.2092 25.848C70.2092 27.3289 70.7656 28.1389 71.6656 28.1389C72.5656 28.1389 73.1465 27.3289 73.1465 25.8562L73.1301 25.848ZM76.7956 19.8835C76.7841 19.6159 76.853 19.3511 76.9933 19.123C77.1336 18.8949 77.339 18.7141 77.583 18.6037C77.827 18.4933 78.0984 18.4584 78.3623 18.5036C78.6263 18.5487 78.8706 18.6717 79.0641 18.8569C79.2575 19.0421 79.3911 19.2809 79.4477 19.5426C79.5042 19.8043 79.4813 20.077 79.3816 20.3255C79.2819 20.5741 79.1102 20.7871 78.8885 20.9373C78.6668 21.0874 78.4052 21.1678 78.1374 21.168C77.9663 21.1723 77.796 21.1426 77.6364 21.0807C77.4769 21.0187 77.3312 20.9256 77.2079 20.8069C77.0846 20.6881 76.986 20.5461 76.9181 20.3889C76.8501 20.2318 76.8141 20.0628 76.8119 19.8916L76.7956 19.8835ZM76.7956 21.8144H79.4547V29.8816H76.8365L76.7956 21.8144ZM89.0192 25.848C89.0192 28.4744 87.841 29.9962 85.8365 29.9962C85.3233 30.0278 84.8128 29.9012 84.3738 29.6335C83.9349 29.3657 83.5887 28.9697 83.3819 28.4989H83.3328V32.4753H80.7065V21.8389H83.3165V23.2789H83.3656C83.5652 22.7989 83.908 22.392 84.3472 22.1138C84.7865 21.8356 85.3008 21.6997 85.8201 21.7244C87.8819 21.708 89.0683 23.2216 89.0683 25.8562L89.0192 25.848ZM86.3438 25.848C86.3438 24.5716 85.7465 23.7453 84.8219 23.7453C83.8974 23.7453 83.3165 24.5635 83.3083 25.848C83.3001 27.1325 83.8974 27.9425 84.8219 27.9425C85.7465 27.9425 86.3929 27.1816 86.3929 25.8562L86.3438 25.848ZM93.5028 21.6262C95.7038 21.6262 97.0701 22.6653 97.0865 24.3344H94.6892C94.6892 23.7535 94.2065 23.3935 93.4865 23.3935C92.7665 23.3935 92.4228 23.6716 92.4228 24.0889C92.4228 24.5062 92.7256 24.6371 93.331 24.7598L95.0165 25.1035C96.6528 25.4471 97.3074 26.1016 97.3074 27.3207C97.3074 28.9571 95.7938 30.0698 93.5438 30.0698C91.2938 30.0698 89.8292 28.9898 89.7228 27.3453H92.2674C92.341 27.9425 92.8156 28.2944 93.5847 28.2944C94.3538 28.2944 94.7138 28.0489 94.7138 27.6153C94.7138 27.1816 94.4683 27.108 93.8383 26.9771L92.3165 26.658C90.7374 26.3225 89.911 25.4962 89.911 24.2607C89.9601 22.6571 91.3347 21.6344 93.5519 21.6344L93.5028 21.6262ZM106.103 29.8735H103.558V28.3598H103.509C103.367 28.8647 103.057 29.306 102.63 29.6108C102.203 29.9158 101.685 30.0661 101.161 30.0371C100.766 30.0499 100.371 29.9791 100.006 29.829C99.64 29.6791 99.3095 29.4533 99.037 29.1667C98.7638 28.88 98.5551 28.5389 98.4234 28.1658C98.2917 27.7927 98.2401 27.3959 98.2729 27.0016V21.8225H100.899V26.4371C100.899 27.3862 101.398 27.9016 102.216 27.9016C102.409 27.9002 102.598 27.8575 102.772 27.7767C102.946 27.6958 103.101 27.5785 103.225 27.4327C103.35 27.2869 103.443 27.1159 103.496 26.9315C103.548 26.747 103.562 26.5534 103.534 26.3635V21.8225H106.152L106.103 29.8735ZM107.371 21.8144H109.924V23.3689H109.981C110.122 22.8709 110.424 22.4337 110.84 22.1258C111.257 21.8179 111.763 21.6565 112.28 21.6671C112.8 21.6219 113.318 21.7721 113.732 22.0884C114.146 22.4046 114.428 22.8642 114.522 23.3771H114.636C114.8 22.8614 115.129 22.4142 115.573 22.105C116.017 21.7957 116.551 21.6418 117.091 21.6671C117.45 21.6534 117.809 21.7158 118.142 21.85C118.475 21.9842 118.776 22.1874 119.026 22.4462C119.276 22.7049 119.467 23.0134 119.589 23.3515C119.712 23.6896 119.761 24.0496 119.734 24.408V29.8816H117.091V25.0789C117.091 24.2607 116.706 23.8025 115.962 23.8025C115.797 23.7998 115.633 23.8329 115.482 23.8993C115.33 23.9659 115.196 24.0643 115.086 24.1878C114.977 24.3115 114.895 24.4572 114.847 24.6152C114.799 24.7733 114.786 24.9398 114.808 25.1035V29.8816H112.305V25.0544C112.305 24.2362 111.904 23.8025 111.184 23.8025C111.017 23.8012 110.852 23.8356 110.699 23.9033C110.546 23.9712 110.411 24.0707 110.299 24.1955C110.189 24.3203 110.106 24.4673 110.057 24.6267C110.007 24.7862 109.992 24.9543 110.014 25.1198V29.8816H107.387L107.371 21.8144Z" fill="#75797F"/>
<path d="M40.3127 19.9082C40.3127 18.2798 39.821 16.6893 38.9019 15.3451C37.9827 14.0009 36.679 12.9656 35.1615 12.3749C33.644 11.7841 31.9834 11.6655 30.3974 12.0345C28.8112 12.4035 27.3736 13.2429 26.2727 14.4428H16.0618V35.9937H37.6208V25.9219C38.467 25.1651 39.1441 24.2383 39.608 23.2021C40.0718 22.1659 40.3119 21.0436 40.3127 19.9082ZM36.1645 19.9082C36.1661 20.6885 35.9362 21.4518 35.5039 22.1015C35.0715 22.751 34.4562 23.2578 33.7357 23.5575C33.0152 23.8573 32.2221 23.9366 31.4565 23.7853C30.691 23.6341 29.9875 23.2591 29.4352 22.7079C28.8828 22.1567 28.5065 21.454 28.3536 20.6888C28.2008 19.9236 28.2784 19.1302 28.5767 18.4092C28.8749 17.6881 29.3804 17.0717 30.029 16.638C30.6778 16.2043 31.4405 15.9728 32.2208 15.9728C33.2653 15.9728 34.2672 16.3872 35.0065 17.125C35.7459 17.8628 36.1624 18.8638 36.1645 19.9082ZM33.4727 31.8455H20.2099V18.591H24.2518C24.1737 19.0258 24.1326 19.4665 24.129 19.9082C24.1312 22.0537 24.9844 24.1106 26.5015 25.6277C28.0185 27.1447 30.0754 27.9979 32.2208 28.0001C32.6403 27.9979 33.0589 27.9623 33.4727 27.8937V31.8455Z" fill="#75797F"/>
</svg>
