<svg width="135" height="48" viewBox="0 0 135 48" fill="none" xmlns="http://www.w3.org/2000/svg">
<g clip-path="url(#clip0_71_145)">
<path fill-rule="evenodd" clip-rule="evenodd" d="M49.0416 18.6424C48.0059 21.2006 47.7349 24.0155 48.263 26.7313C48.791 29.447 50.0943 31.9416 52.008 33.8995C53.9218 35.8574 56.3601 37.1908 59.0145 37.731C61.6691 38.2712 64.4205 37.9939 66.921 36.9343C69.4214 35.8747 71.5586 34.0802 73.0622 31.778C73.1023 31.7166 73.1419 31.6549 73.181 31.5929C73.2086 31.5492 73.236 31.5052 73.2632 31.4611V38H74.3158C77.0223 38 79.668 37.1789 81.9183 35.6405C84.1687 34.1023 85.9226 31.9157 86.9583 29.3575C87.9941 26.7994 88.2651 23.9845 87.737 21.2687C87.209 18.553 85.9058 16.0584 83.992 14.1005C82.0782 12.1426 79.6399 10.8092 76.9855 10.269C74.3309 9.72881 71.5795 10.0061 69.079 11.0657C66.5786 12.1253 64.4414 13.9198 62.9378 16.222C62.8694 16.3268 62.8024 16.4325 62.7368 16.5389V10H61.6842C58.9777 10 56.332 10.8211 54.0817 12.3595C51.8313 13.8977 50.0774 16.0842 49.0416 18.6424ZM60.6316 24V12.2029C58.713 12.3821 56.8624 13.049 55.2513 14.1503C53.3471 15.4519 51.8631 17.3021 50.9867 19.4667C50.1103 21.6313 49.881 24.0131 50.3278 26.3111C50.7745 28.609 51.8774 30.7198 53.4966 32.3765C55.116 34.0332 57.1792 35.1614 59.4253 35.6185C61.6714 36.0756 63.9995 35.841 66.1153 34.9444C68.1461 34.0838 69.8937 32.6504 71.1559 30.814C70.1993 31.2786 69.1293 31.5385 68 31.5385C63.9306 31.5385 60.6316 28.1633 60.6316 24ZM75.3684 35.7971V24C75.3684 19.8366 72.0694 16.4615 68 16.4615C66.8707 16.4615 65.8007 16.7214 64.8441 17.186C66.1063 15.3496 67.8539 13.9161 69.8847 13.0556C72.0005 12.159 74.3286 11.9244 76.5747 12.3815C78.8208 12.8386 80.884 13.9668 82.5034 15.6235C84.1227 17.2802 85.2255 19.391 85.6722 21.6889C86.119 23.9869 85.8897 26.3687 85.0133 28.5333C84.137 30.6979 82.6529 32.5481 80.7487 33.8497C79.1376 34.951 77.287 35.6179 75.3684 35.7971ZM67.8947 29.3836C65.0715 29.3269 62.7933 26.996 62.7379 24.1077H64.7291C66.2999 24.474 67.5365 25.739 67.8947 27.3461V29.3836ZM68.1052 29.3836C70.9284 29.3269 73.2067 26.996 73.2621 24.1077H71.2709C69.6999 24.474 68.4633 25.7392 68.1052 27.3465V29.3836ZM73.2621 23.8923C73.2067 21.004 70.9284 18.6731 68.1052 18.6164V20.6535C68.4633 22.2607 69.6998 23.5259 71.2706 23.8923H73.2621ZM67.8947 18.6164C65.0716 18.6731 62.7933 21.004 62.7379 23.8923H64.7294C66.3001 23.5259 67.5366 22.2609 67.8947 20.6539V18.6164Z" fill="#75797F"/>
</g>
<defs>
<clipPath id="clip0_71_145">
<rect width="40" height="28" fill="white" transform="translate(48 10)"/>
</clipPath>
</defs>
</svg>
