<svg width="1347" height="536" viewBox="0 0 1347 536" fill="none" xmlns="http://www.w3.org/2000/svg">
<g id="LOGO-UNI-WHITE" clip-path="url(#clip0_27_92)">
<g id="Group">
<path id="Vector" fill-rule="evenodd" clip-rule="evenodd" d="M436.792 42.1417C449.809 42.1417 461.545 47.3694 470.08 55.9045V46.836C470.08 21.0175 449.062 0 423.349 0H87.055C61.2354 0 40.3237 20.8041 40.3237 46.836V56.5446C48.8591 47.6895 60.9153 42.1417 74.2519 42.1417H436.792Z" fill="white"/>
<path id="Vector_2" fill-rule="evenodd" clip-rule="evenodd" d="M54.8339 510.288C46.1918 510.288 38.2966 508.581 31.2549 505.594C37.8698 523.411 55.0473 536 75.1054 536H435.192C455.25 536 472.428 523.411 479.043 505.594C472.001 508.581 464.106 510.288 455.464 510.288H54.8339Z" fill="white"/>
<path id="Vector_3" fill-rule="evenodd" clip-rule="evenodd" d="M509.663 431.446L484.057 275.895V104.234C484.057 77.9888 462.932 57.078 436.899 57.078H74.2519C48.219 57.078 27.0939 78.2022 27.0939 104.234V275.788H26.4538L0.847628 431.339C-4.91376 466.546 19.3054 495.245 54.9406 495.245H455.677C491.205 495.352 515.425 466.76 509.663 431.446ZM129.625 345.882C115.008 345.882 103.059 334.04 103.059 319.424C103.059 304.807 114.902 292.965 129.625 292.965C144.349 292.965 156.192 304.807 156.192 319.424C156.085 334.146 144.242 345.882 129.625 345.882ZM154.271 236.42C143.922 246.769 127.171 246.662 116.822 236.314C106.473 225.965 106.473 209.215 116.715 198.866C126.958 188.517 143.815 188.624 154.164 198.973C164.514 209.322 164.62 226.072 154.271 236.42ZM215.192 414.376C204.843 424.724 188.093 424.725 177.743 414.482C167.394 404.24 167.501 387.384 177.85 377.035C188.199 366.686 204.95 366.686 215.299 376.928C225.648 387.17 225.542 404.027 215.192 414.376ZM210.818 176.462C196.201 176.462 184.358 164.619 184.358 149.896C184.358 135.174 196.201 123.331 210.818 123.331C225.435 123.331 237.278 135.174 237.278 149.896C237.278 164.619 225.435 176.462 210.818 176.462ZM297.132 428.245C282.515 428.245 270.672 416.403 270.672 401.68C270.672 387.064 282.515 375.115 297.132 375.115C311.749 375.115 323.592 386.957 323.592 401.68C323.592 416.403 311.749 428.245 297.132 428.245ZM330.1 174.648C319.751 184.997 303 184.997 292.651 174.755C282.302 164.513 282.409 147.656 292.758 137.307C303.107 126.959 319.858 126.959 330.207 137.201C340.556 147.443 340.556 164.193 330.1 174.648ZM391.235 352.71C380.886 363.059 364.135 362.952 353.786 352.603C343.437 342.255 343.437 325.505 353.679 315.156C363.922 304.807 380.779 304.914 391.128 315.263C401.584 325.611 401.584 342.361 391.235 352.71ZM378.432 258.611C363.815 258.611 351.865 246.769 351.865 232.153C351.865 217.537 363.708 205.694 378.432 205.694C393.049 205.694 404.998 217.537 404.998 232.153C404.891 246.769 393.049 258.611 378.432 258.611Z" fill="white"/>
</g>
<g id="Vyte Copy 4">
<path d="M711.715 155.376H740.687L781.028 288.133C784.94 302.069 787.751 311.604 789.463 316.738C793.619 332.386 798.631 349.5 804.499 368.081H805.966C808.655 360.013 814.278 341.432 822.835 312.338L829.803 288.133L870.144 155.376H897.649L820.635 396.319H789.463L711.715 155.376Z" fill="white"/>
<path d="M926.254 474.067C918.919 474.067 912.196 472.844 906.084 470.399L911.218 448.762C916.108 450.718 920.753 451.696 925.154 451.696C934.933 451.696 943.246 448.029 950.092 440.694C956.937 433.359 962.438 423.458 966.595 410.989L970.995 397.42L899.116 218.454H926.621L964.761 320.406L982.364 370.281H983.831C987.254 360.013 990.799 348.766 994.466 336.542L999.234 320.406L1032.61 218.454H1058.64L991.166 412.822C984.32 431.893 975.763 446.806 965.494 457.564C955.47 468.566 942.39 474.067 926.254 474.067Z" fill="white"/>
<path d="M1148.12 400.72C1130.52 400.72 1117.93 395.708 1110.35 385.684C1102.77 375.66 1098.98 361.358 1098.98 342.777V240.458H1072.21V220.288L1100.08 218.454L1103.38 168.212H1125.75V218.454H1174.53V240.458H1125.75V343.51C1125.75 355.245 1127.83 364.047 1131.99 369.915C1136.39 375.782 1143.72 378.716 1153.99 378.716C1159.12 378.716 1165.97 377.127 1174.53 373.949L1180.03 394.119C1166.82 398.52 1156.19 400.72 1148.12 400.72Z" fill="white"/>
<path d="M1346.66 297.302C1346.66 303.658 1346.29 309.037 1345.56 313.438H1222.7C1223.92 334.219 1230.28 350.356 1241.77 361.847C1253.51 373.338 1267.81 379.083 1284.68 379.083C1300.33 379.083 1315.36 374.316 1329.79 364.78L1339.69 382.384C1330.89 388.007 1321.84 392.53 1312.55 395.953C1303.26 399.131 1292.87 400.72 1281.38 400.72C1265.73 400.72 1251.43 397.053 1238.47 389.718C1225.76 382.139 1215.61 371.259 1208.03 357.079C1200.7 342.899 1197.03 326.396 1197.03 307.57C1197.03 288.989 1200.7 272.608 1208.03 258.428C1215.61 244.248 1225.51 233.368 1237.74 225.789C1249.96 217.965 1262.92 214.053 1276.61 214.053C1298.61 214.053 1315.73 221.51 1327.95 236.424C1340.42 251.093 1346.66 271.386 1346.66 297.302ZM1322.82 294.001C1322.82 275.175 1318.78 260.751 1310.72 250.727C1302.65 240.703 1291.4 235.691 1276.98 235.691C1263.77 235.691 1252.04 240.703 1241.77 250.727C1231.5 260.751 1225.39 275.175 1223.43 294.001H1322.82Z" fill="white"/>
</g>
</g>
<defs>
<clipPath id="clip0_27_92">
<rect width="1346.66" height="536" fill="white"/>
</clipPath>
</defs>
</svg>
