<svg width="135" height="48" viewBox="0 0 135 48" fill="none" xmlns="http://www.w3.org/2000/svg">
<g clip-path="url(#clip0_71_114)">
<path d="M42.8984 15.7568H45.2703V28.6941H49.173V30.8503H42.8984V15.7568Z" fill="#75797F"/>
<path d="M53.6546 31.0657C52.4902 31.0657 51.599 30.7351 50.9809 30.0739C50.3628 29.4126 50.0537 28.4783 50.0537 27.2708V19.336C50.0537 18.1285 50.3628 17.1941 50.9809 16.5329C51.599 15.8716 52.4902 15.541 53.6546 15.541C54.8189 15.541 55.7101 15.8716 56.3283 16.5329C56.9464 17.1941 57.2554 18.1285 57.2554 19.336V27.2708C57.2554 28.4783 56.9464 29.4126 56.3283 30.0739C55.7101 30.7351 54.8189 31.0657 53.6546 31.0657ZM53.6546 28.9095C54.4739 28.9095 54.8836 28.4136 54.8836 27.4217V19.185C54.8836 18.1932 54.4739 17.6972 53.6546 17.6972C52.8352 17.6972 52.4255 18.1932 52.4255 19.185V27.4217C52.4255 28.4136 52.8352 28.9095 53.6546 28.9095Z" fill="#75797F"/>
<path d="M62.223 31.0657C61.073 31.0657 60.1961 30.7423 59.5924 30.0954C58.9886 29.4342 58.6868 28.4927 58.6868 27.2708V19.336C58.6868 18.1141 58.9886 17.1797 59.5924 16.5329C60.1961 15.8716 61.073 15.541 62.223 15.541C63.3729 15.541 64.2498 15.8716 64.8535 16.5329C65.4573 17.1797 65.7592 18.1141 65.7592 19.336V20.6297H63.5167V19.185C63.5167 18.1932 63.107 17.6972 62.2876 17.6972C61.4683 17.6972 61.0586 18.1932 61.0586 19.185V27.4433C61.0586 28.4208 61.4683 28.9095 62.2876 28.9095C63.107 28.9095 63.5167 28.4208 63.5167 27.4433V24.4893H62.3308V22.3331H65.7592V27.2708C65.7592 28.4927 65.4573 29.4342 64.8535 30.0954C64.2498 30.7423 63.3729 31.0657 62.223 31.0657Z" fill="#75797F"/>
<path d="M70.7105 31.0657C69.5461 31.0657 68.6549 30.7351 68.0368 30.0739C67.4187 29.4126 67.1096 28.4783 67.1096 27.2708V19.336C67.1096 18.1285 67.4187 17.1941 68.0368 16.5329C68.6549 15.8716 69.5461 15.541 70.7105 15.541C71.8749 15.541 72.7661 15.8716 73.3842 16.5329C74.0023 17.1941 74.3114 18.1285 74.3114 19.336V27.2708C74.3114 28.4783 74.0023 29.4126 73.3842 30.0739C72.7661 30.7351 71.8749 31.0657 70.7105 31.0657ZM70.7105 28.9095C71.5298 28.9095 71.9395 28.4136 71.9395 27.4217V19.185C71.9395 18.1932 71.5298 17.6972 70.7105 17.6972C69.8912 17.6972 69.4815 18.1932 69.4815 19.185V27.4217C69.4815 28.4136 69.8912 28.9095 70.7105 28.9095Z" fill="#75797F"/>
<path d="M75.9199 15.7568H78.2918V30.8503H75.9199V15.7568Z" fill="#75797F"/>
<path d="M80.0679 15.7568H83.5609C84.7395 15.7568 85.6236 16.0731 86.2132 16.7056C86.8028 17.3381 87.0973 18.2652 87.0973 19.4871V20.9749C87.0973 22.1967 86.8028 23.1239 86.2132 23.7564C85.6236 24.3889 84.7395 24.7051 83.5609 24.7051H82.4399V30.8503H80.0679V15.7568ZM83.5609 22.5489C83.9492 22.5489 84.2366 22.4411 84.4236 22.2255C84.6249 22.0098 84.7252 21.6433 84.7252 21.1258V19.3362C84.7252 18.8187 84.6249 18.4521 84.4236 18.2365C84.2366 18.0209 83.9492 17.9131 83.5609 17.9131H82.4399V22.5489H83.5609Z" fill="#75797F"/>
<path d="M91.5528 31.0657C90.4033 31.0657 89.5335 30.7423 88.9439 30.0954C88.3549 29.4342 88.0598 28.4927 88.0598 27.2708V26.4083H90.3024V27.4433C90.3024 28.4208 90.7121 28.9095 91.5315 28.9095C91.934 28.9095 92.2357 28.7945 92.4369 28.5646C92.6525 28.3202 92.7605 27.932 92.7605 27.4002C92.7605 26.7677 92.6168 26.2143 92.3295 25.7399C92.0421 25.2511 91.5101 24.669 90.7335 23.9933C89.7562 23.1309 89.0733 22.3547 88.685 21.6647C88.2973 20.9603 88.1032 20.1697 88.1032 19.2928C88.1032 18.0997 88.4048 17.1797 89.0086 16.5329C89.6125 15.8716 90.4894 15.541 91.6395 15.541C92.7748 15.541 93.6304 15.8716 94.2051 16.5329C94.7947 17.1797 95.0892 18.1141 95.0892 19.336V19.9613H92.8466V19.185C92.8466 18.6675 92.7463 18.2938 92.545 18.0638C92.3437 17.8194 92.0492 17.6972 91.6609 17.6972C90.87 17.6972 90.4752 18.1788 90.4752 19.1419C90.4752 19.6881 90.6189 20.1984 90.9063 20.6728C91.2079 21.1471 91.747 21.7221 92.5236 22.3978C93.5152 23.2602 94.198 24.0437 94.5721 24.7481C94.9455 25.4524 95.1326 26.2789 95.1326 27.2277C95.1326 28.4639 94.8232 29.4126 94.2051 30.0739C93.6013 30.7351 92.7172 31.0657 91.5528 31.0657Z" fill="#75797F"/>
<path d="M99.9426 31.0659C98.7925 31.0659 97.9156 30.7425 97.3117 30.0956C96.7079 29.4344 96.4062 28.4929 96.4062 27.271V15.7568H98.7783V27.4435C98.7783 27.961 98.8786 28.3347 99.0799 28.5648C99.2954 28.7947 99.5977 28.9097 99.9854 28.9097C100.374 28.9097 100.668 28.7947 100.869 28.5648C101.085 28.3347 101.193 27.961 101.193 27.4435V15.7568H103.478V27.271C103.478 28.4929 103.177 29.4344 102.573 30.0956C101.969 30.7425 101.092 31.0659 99.9426 31.0659Z" fill="#75797F"/>
<path d="M105.167 15.7568H108.553L110.062 26.5594H110.105L111.615 15.7568H115V30.8503H112.757V19.4224H112.715L110.989 30.8503H109.005L107.281 19.4224H107.238V30.8503H105.167V15.7568Z" fill="#75797F"/>
<path d="M20 30.8511C22.918 30.8511 25.2834 28.4856 25.2834 25.5676C25.2834 22.6497 22.918 20.2842 20 20.2842V23.9826C20.8754 23.9826 21.585 24.6922 21.585 25.5676C21.585 26.443 20.8754 27.1527 20 27.1527V30.8511Z" fill="#75797F"/>
<path d="M37.6115 22.0448C36.7086 21.7588 35.7471 21.6045 34.7496 21.6045C29.5216 21.6045 25.2834 25.8427 25.2834 31.0706C25.2834 31.5954 25.3261 32.1102 25.4082 32.6117H31.2899C31.0799 32.1409 30.9632 31.6195 30.9632 31.0706C30.9632 28.9795 32.6584 27.2842 34.7496 27.2842C35.8925 27.2842 36.9172 27.7906 37.6115 28.5913V22.0448Z" fill="#75797F"/>
<path d="M20.9287 15C21.3667 18.9625 24.7262 22.0446 28.8055 22.0446C32.8848 22.0446 36.2442 18.9625 36.6823 15H31.0146C30.6647 15.8771 29.8075 16.497 28.8055 16.497C27.8035 16.497 26.9463 15.8771 26.5963 15H20.9287Z" fill="#75797F"/>
</g>
<defs>
<clipPath id="clip0_71_114">
<rect width="95" height="17.8125" fill="white" transform="translate(20 15)"/>
</clipPath>
</defs>
</svg>
