<svg width="85" height="21" viewBox="0 0 85 21" fill="none" xmlns="http://www.w3.org/2000/svg">
<path d="M0.631021 17.517L0.612793 20.4456L0.782079 20.4464C2.28527 20.454 3.78824 20.4616 5.29122 20.4628C7.57854 20.4648 9.41845 18.6011 9.42526 16.3138C9.43564 12.8262 9.46386 9.33867 9.48369 5.85114L9.48976 4.73317C9.50191 2.7281 10.6442 0.899241 12.4427 0.0121517L3.95348 0.0121738C2.13196 0.0121785 0.655325 1.48882 0.655325 3.31034V13.1241L0.631021 17.517Z" fill="white"/>
<path d="M18.0327 10.2746C20.8615 10.2746 23.1547 7.98135 23.1547 5.15254C23.1547 2.32372 20.8615 0.0305071 18.0327 0.0305071C15.2039 0.0305071 12.9107 2.32372 12.9107 5.15254C12.9107 7.98135 15.2039 10.2746 18.0327 10.2746Z" fill="white"/>
<path d="M29.4166 10.2745C26.598 10.2745 24.3131 12.5512 24.3131 15.3596C24.3131 18.168 26.598 20.4447 29.4166 20.4447C32.2353 20.4447 34.5202 18.168 34.5202 15.3596C34.5202 12.5512 32.2353 10.2745 29.4166 10.2745Z" fill="white"/>
<path d="M30.6801 0.0303871C28.5593 0.0303869 26.8401 1.74964 26.8401 3.87045C26.8401 5.99126 28.5593 7.71051 30.6801 7.71051C32.8009 7.71051 34.5202 5.99126 34.5202 3.87045C34.5202 1.74964 32.8009 0.0303873 30.6801 0.0303871Z" fill="white"/>
<path d="M46.6557 17.5539L46.6739 20.4825L46.5046 20.4833C45.0014 20.4909 43.4985 20.4985 41.9955 20.4997C39.7082 20.5017 37.8683 18.638 37.8615 16.3507C37.8511 12.8631 37.8229 9.37556 37.803 5.88803L37.797 4.18813C37.7848 2.18306 37.4207 1.11562 36.0988 0.0490532L43.3332 0.0490643C45.1548 0.049067 46.6314 1.52571 46.6314 3.34723V13.1609L46.6557 17.5539Z" fill="white"/>
<path d="M51.0583 0.0307121H58.1522C59.1208 0.0307121 59.9615 0.698365 60.1808 1.64173L64.5575 20.4633H57.4636C56.495 20.4633 55.6543 19.7956 55.4349 18.8522L51.0583 0.0307121Z" fill="white"/>
<path d="M63.1394 0.0121765H70.2333C71.2019 0.0121765 72.0426 0.679829 72.262 1.6232L76.6386 20.4447H69.5447C68.5761 20.4447 67.7354 19.7771 67.5161 18.8337L63.1394 0.0121765Z" fill="white"/>
<path d="M80.4787 7.69229C82.5995 7.69229 84.3187 5.97303 84.3187 3.85222C84.3187 1.73142 82.5995 0.0121613 80.4787 0.0121613C78.3579 0.0121613 76.6386 1.73142 76.6386 3.85222C76.6386 5.97303 78.3579 7.69229 80.4787 7.69229Z" fill="white"/>
</svg>
