<svg width="135" height="48" viewBox="0 0 135 48" fill="none" xmlns="http://www.w3.org/2000/svg">
<g clip-path="url(#clip0_71_198)">
<path d="M74.0552 27.4912H76.3439V18.8583H74.0552V27.4912ZM74.0552 17.512H76.3439V15.459H74.0552V17.512Z" fill="#75797F"/>
<path d="M77.8186 30.3178H80.1073V26.5145H80.1407C80.6286 27.255 81.4198 27.743 82.6312 27.743C84.8526 27.743 86.3673 25.9761 86.3673 23.1826C86.3673 20.49 84.9032 18.6221 82.6145 18.6221C81.4365 18.6221 80.6286 19.1774 80.0735 19.9347H80.0229V18.8577H77.8186V30.3178ZM82.1433 25.8414C80.7802 25.8414 80.0568 24.8149 80.0568 23.2499C80.0568 21.7017 80.6286 20.4732 82.0593 20.4732C83.4729 20.4732 84.0447 21.6175 84.0447 23.2499C84.0447 24.8822 83.3046 25.8414 82.1433 25.8414Z" fill="#75797F"/>
<path d="M90.9326 27.743C93.0868 27.743 94.5676 26.6997 94.5676 24.9663C94.5676 22.947 92.969 22.5431 91.5215 22.2402C90.293 21.9878 89.1489 21.9204 89.1489 21.18C89.1489 20.5573 89.7379 20.2208 90.6297 20.2208C91.606 20.2208 92.195 20.5573 92.2956 21.4829H94.3654C94.1975 19.7496 92.9351 18.6221 90.6636 18.6221C88.6944 18.6221 87.1463 19.514 87.1463 21.3819C87.1463 23.2667 88.661 23.6874 90.2091 23.9903C91.3871 24.2259 92.4806 24.3101 92.4806 25.1346C92.4806 25.7405 91.9088 26.1275 90.8992 26.1275C89.8724 26.1275 89.1656 25.69 89.0144 24.6971H86.894C87.0285 26.5314 88.4254 27.743 90.9326 27.743Z" fill="#75797F"/>
<path d="M103.257 27.4913V18.8584H100.968V23.8396C100.968 24.9839 100.312 25.7917 99.235 25.7917C98.2588 25.7917 97.8047 25.2363 97.8047 24.2267V18.8584H95.5327V24.6137C95.5327 26.4984 96.6096 27.7269 98.5282 27.7269C99.7401 27.7269 100.413 27.2726 101.002 26.4817H101.053V27.4913H103.257Z" fill="#75797F"/>
<path d="M104.737 27.4906H107.026V22.4758C107.026 21.3314 107.649 20.591 108.574 20.591C109.416 20.591 109.903 21.0958 109.903 22.0719V27.4906H112.192V22.4758C112.192 21.3314 112.781 20.591 113.74 20.591C114.582 20.591 115.07 21.0958 115.07 22.0719V27.4906H117.359V21.6848C117.359 19.8001 116.332 18.6221 114.514 18.6221C113.421 18.6221 112.512 19.1942 111.923 20.1366H111.889C111.469 19.2279 110.594 18.6221 109.5 18.6221C108.305 18.6221 107.464 19.2279 106.992 20.0188H106.942V18.8577H104.737V27.4906Z" fill="#75797F"/>
<path d="M14.4048 27.4912H16.6934V15.459H14.4048V27.4912Z" fill="#75797F"/>
<path d="M22.2893 27.743C24.965 27.743 26.7993 25.7573 26.7993 23.1826C26.7993 20.6078 24.965 18.6221 22.2893 18.6221C19.6136 18.6221 17.7793 20.6078 17.7793 23.1826C17.7793 25.7573 19.6136 27.743 22.2893 27.743ZM22.2893 25.9929C20.8757 25.9929 20.1016 24.8654 20.1016 23.1826C20.1016 21.4997 20.8757 20.3554 22.2893 20.3554C23.6861 20.3554 24.477 21.4997 24.477 23.1826C24.477 24.8654 23.6861 25.9929 22.2893 25.9929Z" fill="#75797F"/>
<path d="M31.6663 30.4356C32.9452 30.4356 34.0559 30.1327 34.7795 29.4595C35.419 28.8705 35.8061 28.0459 35.8061 26.8343V18.8577H33.6016V19.7664H33.5679C33.0462 19.0428 32.2553 18.6221 31.1783 18.6221C28.9906 18.6221 27.4424 20.2712 27.4424 22.846C27.4424 25.4544 29.3272 26.9689 31.2456 26.9689C32.3394 26.9689 32.9957 26.5314 33.5005 25.9592H33.5511V26.9016C33.5511 28.0796 32.9284 28.7023 31.6326 28.7023C30.5724 28.7023 30.0844 28.2815 29.8993 27.743H27.6275C27.8631 29.4259 29.3103 30.4356 31.6663 30.4356ZM31.6326 25.1346C30.4546 25.1346 29.6805 24.2764 29.6805 22.8123C29.6805 21.3651 30.4546 20.4564 31.6158 20.4564C32.9957 20.4564 33.6689 21.5334 33.6689 22.7955C33.6689 24.0745 33.0799 25.1346 31.6326 25.1346Z" fill="#75797F"/>
<path d="M41.3689 27.743C44.0446 27.743 45.8789 25.7573 45.8789 23.1826C45.8789 20.6078 44.0446 18.6221 41.3689 18.6221C38.6932 18.6221 36.8589 20.6078 36.8589 23.1826C36.8589 25.7573 38.6932 27.743 41.3689 27.743ZM41.3689 25.9929C39.9553 25.9929 39.1812 24.8654 39.1812 23.1826C39.1812 21.4997 39.9553 20.3554 41.3689 20.3554C42.7656 20.3554 43.5566 21.4997 43.5566 23.1826C43.5566 24.8654 42.7656 25.9929 41.3689 25.9929Z" fill="#75797F"/>
<path d="M118.19 17.4404C118.19 17.0532 118.504 16.7393 118.891 16.7393H120.294C120.681 16.7393 120.995 17.0532 120.995 17.4404C120.995 17.8277 120.681 18.1416 120.294 18.1416H118.891C118.504 18.1416 118.19 17.8277 118.19 17.4404Z" fill="#75797F"/>
<path fill-rule="evenodd" clip-rule="evenodd" d="M59.7589 13C65.1802 13 69.5756 17.395 69.5756 22.8165C69.5756 28.238 65.1802 32.633 59.7589 32.633C54.3374 32.633 49.9424 28.238 49.9424 22.8165C49.9424 17.395 54.3374 13 59.7589 13ZM59.4041 13.7346C58.2842 13.8922 57.2178 14.792 56.39 16.2971C56.1499 16.7336 55.9333 17.2159 55.7445 17.7367C56.87 17.4538 58.1065 17.2871 59.4041 17.2613V13.7346ZM54.9148 17.9725C55.1496 17.2356 55.4368 16.5577 55.7682 15.9551C56.1786 15.209 56.6656 14.5647 57.2143 14.0699C54.2306 14.9364 51.8788 17.2882 51.0122 20.2719C51.5071 19.7232 52.1513 19.2362 52.8974 18.8259C53.5001 18.4945 54.178 18.2072 54.9148 17.9725ZM54.679 18.8021C54.3962 19.9277 54.2295 21.1641 54.2036 22.4617H50.6769C50.8345 21.3418 51.7344 20.2754 53.2395 19.4477C53.676 19.2076 54.1583 18.9909 54.679 18.8021ZM54.9134 22.4617C54.9427 21.0456 55.1466 19.7162 55.4839 18.5415C56.6585 18.2042 57.988 18.0003 59.4041 17.971V19.5038C58.8758 20.8563 57.7983 21.9336 56.4459 22.4617H54.9134ZM54.2036 23.1713H50.6769C50.8345 24.2912 51.7344 25.3576 53.2395 26.1853C53.676 26.4255 54.1583 26.6421 54.679 26.8309C54.3962 25.7054 54.2295 24.4689 54.2036 23.1713ZM55.4839 27.0915C55.1466 25.9169 54.9427 24.5874 54.9134 23.1713H56.4459C57.7983 23.6994 58.8758 24.7768 59.4041 26.1292V27.662C57.988 27.6327 56.6585 27.4288 55.4839 27.0915ZM54.9148 27.6606C54.178 27.4258 53.5001 27.1386 52.8974 26.8071C52.1513 26.3968 51.5071 25.9098 51.0122 25.3611C51.8788 28.3448 54.2306 30.6966 57.2143 31.5631C56.6656 31.0683 56.1786 30.424 55.7682 29.6779C55.4368 29.0753 55.1496 28.3974 54.9148 27.6606ZM59.4041 31.8985C58.2842 31.7409 57.2178 30.841 56.39 29.336C56.1499 28.8994 55.9333 28.4171 55.7445 27.8964C56.87 28.1792 58.1065 28.346 59.4041 28.3717V31.8985ZM62.3035 31.5631C62.8522 31.0683 63.3391 30.424 63.7495 29.6779C64.0808 29.0753 64.3684 28.3974 64.603 27.6606C65.3397 27.4258 66.0176 27.1386 66.6203 26.8071C67.3664 26.3968 68.0108 25.9098 68.5056 25.3611C67.6388 28.3448 65.2872 30.6966 62.3035 31.5631ZM63.7735 27.8964C63.5845 28.4171 63.3676 28.8994 63.1276 29.336C62.3 30.841 61.2336 31.7409 60.1137 31.8985V28.3717C61.4113 28.346 62.6477 28.1792 63.7735 27.8964ZM64.8386 26.8309C65.3594 26.6421 65.8418 26.4255 66.2782 26.1853C67.7836 25.3576 68.6832 24.2912 68.8408 23.1713H65.3142C65.2882 24.4689 65.1213 25.7054 64.8386 26.8309ZM64.6045 23.1713C64.575 24.5874 64.3713 25.9169 64.0336 27.0915C62.8592 27.4288 61.5297 27.6327 60.1137 27.662V26.1303C60.6418 24.7774 61.7195 23.6996 63.0723 23.1713H64.6045ZM65.3142 22.4617H68.8408C68.6832 21.3418 67.7836 20.2754 66.2782 19.4477C65.8418 19.2076 65.3594 18.9909 64.8386 18.8021C65.1213 19.9277 65.2882 21.1641 65.3142 22.4617ZM64.0336 18.5415C64.3713 19.7162 64.575 21.0456 64.6045 22.4617H63.0724C61.7195 21.9335 60.6418 20.8556 60.1137 19.5027V17.971C61.5297 18.0003 62.8592 18.2042 64.0336 18.5415ZM64.603 17.9725C65.3397 18.2072 66.0176 18.4945 66.6203 18.8259C67.3664 19.2362 68.0108 19.7232 68.5056 20.2719C67.6388 17.2882 65.2872 14.9364 62.3035 14.0699C62.8522 14.5647 63.3391 15.209 63.7495 15.9551C64.0808 16.5577 64.3684 17.2356 64.603 17.9725ZM60.1137 13.7346C61.2336 13.8922 62.3 14.792 63.1276 16.2971C63.3676 16.7336 63.5845 17.2159 63.7735 17.7367C62.6477 17.4538 61.4113 17.2871 60.1137 17.2613V13.7346Z" fill="#75797F"/>
</g>
<defs>
<clipPath id="clip0_71_198">
<rect width="107" height="19.633" fill="white" transform="translate(14 13)"/>
</clipPath>
</defs>
</svg>
