<svg width="135" height="48" viewBox="0 0 135 48" fill="none" xmlns="http://www.w3.org/2000/svg">
<g clip-path="url(#clip0_71_165)">
<path fill-rule="evenodd" clip-rule="evenodd" d="M32.6815 16.1689V33.6985H28V16.1689H32.6815Z" fill="#75797F"/>
<path fill-rule="evenodd" clip-rule="evenodd" d="M35.022 16.1689H44.9701C48.202 16.1689 50.822 18.785 50.822 22.0121C50.822 25.2393 48.202 27.8553 44.9701 27.8553H39.7034V33.6985H35.022V16.1689ZM39.7034 23.1808H44.9701C45.6165 23.1808 46.1405 22.6576 46.1405 22.0121C46.1405 21.3667 45.6165 20.8435 44.9701 20.8435H39.7034V23.1808Z" fill="#75797F"/>
<path fill-rule="evenodd" clip-rule="evenodd" d="M68.3778 16.1689V25.2259C68.3778 27.3235 70.0807 29.024 72.1815 29.024C74.2822 29.024 75.9852 27.3235 75.9852 25.2259V16.1689H80.6668V25.2259C80.6668 29.9052 76.8678 33.6985 72.1815 33.6985C67.4952 33.6985 63.6963 29.9052 63.6963 25.2259V16.1689H68.3778Z" fill="#75797F"/>
<path fill-rule="evenodd" clip-rule="evenodd" d="M52.5777 24.3494C52.5777 19.8315 56.2457 16.1689 60.7703 16.1689H61.9407V20.8435H60.7703C58.8311 20.8435 57.2592 22.4132 57.2592 24.3494V24.9337C57.2592 29.7744 53.3292 33.6985 48.4814 33.6985H47.8962V29.024H48.4814C50.7437 29.024 52.5777 27.1927 52.5777 24.9337V24.3494Z" fill="#75797F"/>
<path d="M107 16.753C107 17.7211 106.214 18.5059 105.244 18.5059C104.275 18.5059 103.489 17.7211 103.489 16.753C103.489 15.7848 104.275 15 105.244 15C106.214 15 107 15.7848 107 16.753Z" fill="#75797F"/>
<path d="M85.6933 33.6987L87.9273 24.358L89.5881 29.9774C90.5782 33.329 95.3327 33.329 96.3232 29.9774L97.9836 24.358L100.218 33.6987H105.031L101.518 19.011C100.683 15.5181 95.7534 15.3888 94.7353 18.8331L92.9557 24.856L91.1756 18.8331C90.158 15.3888 85.2282 15.5181 84.3928 19.011L80.8804 33.6987H85.6933Z" fill="#75797F"/>
</g>
<defs>
<clipPath id="clip0_71_165">
<rect width="79" height="18.6982" fill="white" transform="translate(28 15)"/>
</clipPath>
</defs>
</svg>
