<svg width="135" height="48" viewBox="0 0 135 48" fill="none" xmlns="http://www.w3.org/2000/svg">
<g clip-path="url(#clip0_71_175)">
<path d="M90.6344 11.1793C90.6344 11.2189 90.6344 11.2684 90.6243 11.2982C90.5736 11.6847 90.5736 12.0712 90.604 12.4677C90.6243 12.5668 90.6446 12.6659 90.7257 12.7452C90.8574 12.8938 91.0601 12.8641 91.1413 12.6857C91.1818 12.5965 91.1818 12.5073 91.1615 12.4181C91.0601 12.0415 91.0399 11.6451 91.0298 11.2585C91.0298 11.2387 91.0298 11.209 91.0298 11.1793C91.1413 11.1693 91.2426 11.1594 91.3338 11.1594C91.4048 11.1495 91.4657 11.1396 91.5163 11.1099C91.6683 11.0306 91.6683 10.8621 91.5061 10.7828C91.4453 10.7531 91.3643 10.7432 91.2933 10.7432C91.0399 10.7531 90.7865 10.7531 90.533 10.7531C90.4419 10.7531 90.3506 10.763 90.2593 10.7729C90.2087 10.7828 90.1478 10.7828 90.1074 10.8125C90.0363 10.8423 89.9958 10.8918 89.9958 10.9612C90.006 11.0306 90.0363 11.0702 90.1074 11.1C90.1478 11.1297 90.1985 11.1396 90.2492 11.1396C90.3709 11.1495 90.5027 11.1693 90.6344 11.1793ZM93.422 11.6352C93.422 11.6451 93.4321 11.655 93.4321 11.655C93.4727 11.9226 93.5132 12.1803 93.5436 12.4379C93.5538 12.5271 93.5639 12.6064 93.6247 12.6758C93.7565 12.8443 93.9592 12.8245 94.0504 12.6461C94.091 12.5569 94.1011 12.4677 94.0809 12.3686C94.0201 12.0712 93.9896 11.7739 93.9288 11.4865C93.8882 11.3081 93.8376 11.1396 93.7869 10.981C93.7565 10.8819 93.6855 10.8125 93.5639 10.8026C93.4423 10.7828 93.351 10.8423 93.3003 10.9315C93.2395 11.0108 93.1888 11.09 93.1483 11.1793C93.0773 11.3378 93.0165 11.4964 92.9355 11.6451C92.9253 11.6847 92.9151 11.7144 92.8949 11.7442C92.8848 11.7243 92.8746 11.7144 92.8746 11.7144C92.7428 11.4667 92.6212 11.2189 92.4894 10.981C92.4691 10.9612 92.459 10.9414 92.4489 10.9216C92.3881 10.8324 92.3171 10.7828 92.2056 10.7828C92.1042 10.7927 92.0231 10.8522 91.9725 10.9414C91.9522 10.981 91.9522 11.0108 91.942 11.0504C91.9015 11.3676 91.8508 11.6847 91.8103 12.0019C91.79 12.1803 91.7798 12.3587 91.7798 12.5371C91.7697 12.5767 91.7798 12.6262 91.8001 12.6659C91.8204 12.7452 91.8812 12.7947 91.9623 12.8046C92.0637 12.8146 92.1346 12.7848 92.165 12.7055C92.1954 12.6461 92.2056 12.5965 92.2157 12.547C92.2563 12.3686 92.2867 12.2001 92.3171 12.0316C92.3374 11.9325 92.3475 11.8532 92.3779 11.7442C92.3982 11.7838 92.4184 11.8136 92.4387 11.8433C92.5299 11.9622 92.6212 12.0811 92.7327 12.1803C92.8442 12.2595 92.9355 12.2496 93.0266 12.1604C93.047 12.1406 93.0571 12.1307 93.0773 12.1109C93.1686 11.9721 93.2801 11.8334 93.3713 11.6946C93.3916 11.6748 93.4017 11.655 93.422 11.6352Z" fill="#75797F"/>
<path d="M70.066 11.3744C69.9955 11.5627 69.9821 11.6984 70.0146 11.8112C70.0505 11.9646 70.1438 12.0148 70.2704 11.9758C71.461 11.6879 74.0718 12.505 75.0384 12.7327C75.2664 12.7805 75.4518 12.4928 75.2963 12.2349C75.0692 11.985 72.4596 10.9154 71.4639 10.8571C71.0736 10.8356 70.3758 10.7377 70.066 11.3744Z" fill="#75797F"/>
<path d="M80.2694 7.91171C80.3963 7.98331 80.4672 8.05162 80.5022 8.12795C80.5544 8.22806 80.5268 8.29733 80.4392 8.33267C79.6522 8.70823 78.6049 10.3251 78.1822 10.8827C78.0797 11.011 77.8433 10.9365 77.8076 10.7255C77.815 10.487 78.7433 8.73233 79.2614 8.25443C79.465 8.06784 79.8014 7.70172 80.2694 7.91171Z" fill="#75797F"/>
<path d="M74.0016 7.11575C74.154 7.00341 74.3124 6.96405 74.3934 7.03705C75.5808 8.02997 76.2105 9.60234 76.6004 11.0418C76.6151 11.0753 76.616 11.1235 76.6043 11.1737C76.5994 11.2166 76.5673 11.2619 76.5164 11.297C76.462 11.3357 76.4152 11.3475 76.3932 11.3141C75.8727 10.622 72.9003 7.92914 74.0016 7.11575Z" fill="#75797F"/>
<path d="M48.8562 24.3308C49.1408 24.1237 49.4502 23.9512 49.7776 23.8173C50.1202 23.7216 50.4853 23.7374 50.8178 23.8626C51.1502 23.9878 51.432 24.2154 51.6204 24.511C51.789 24.8059 51.8549 25.1464 51.8084 25.4811C51.7618 25.8158 51.6054 26.1266 51.3624 26.3669C51.1741 26.5616 50.9603 26.7312 50.7267 26.8714C49.6855 27.5291 48.6351 28.1506 47.5847 28.8083C47.3697 28.9729 47.1417 29.1206 46.9028 29.2498C46.5394 29.427 46.1241 29.4744 45.7288 29.3839C45.3334 29.2935 44.9827 29.0707 44.7375 28.7543C44.5542 28.5302 44.3995 28.2852 44.2768 28.0245C43.2817 25.9795 42.2497 23.9435 41.2915 21.8623C40.8492 20.9615 40.4898 19.9254 40.1397 18.9254C39.9882 18.6349 39.9586 18.2981 40.0573 17.9865C40.1559 17.6749 40.3749 17.4133 40.6678 17.2572C40.9607 17.1011 41.3042 17.0629 41.6255 17.1507C41.9467 17.2385 42.2203 17.4454 42.3879 17.7273C42.9033 18.3969 43.3595 19.1082 43.7516 19.8534C44.7467 21.6552 45.6958 23.4569 46.6541 25.2047C46.7099 25.3013 46.7714 25.3945 46.8383 25.484C47.5596 25.1875 48.238 24.7998 48.8562 24.3308Z" fill="#75797F"/>
<path d="M59.1451 23.7019C56.8692 26.3054 53.0546 25.6477 51.1381 22.2964C49.7744 19.918 49.5348 15.9901 52.5018 13.5127C53.1353 12.994 53.8929 12.6406 54.7039 12.4856C55.6982 12.3462 56.7122 12.5178 57.6009 12.9757C58.4895 13.4336 59.2074 14.1544 59.6519 15.0352C61.2735 17.9181 61.0432 21.5937 59.1451 23.7019ZM58.2237 17.6298C57.9819 16.9213 57.4968 16.3165 56.8508 15.918C56.4852 15.6633 56.0409 15.5394 55.5929 15.5673C55.1448 15.5952 54.7203 15.7731 54.3906 16.0712C53.0731 17.2154 52.7966 19.9271 53.7548 21.5397C53.877 21.8026 54.0564 22.0363 54.2805 22.2244C54.5047 22.4125 54.7682 22.5504 55.0526 22.6285C55.3369 22.7066 55.6353 22.723 55.9268 22.6765C56.2184 22.63 56.4959 22.5218 56.7403 22.3595C57.4545 21.818 57.9785 21.0725 58.2394 20.2265C58.5003 19.3805 58.4852 18.476 58.1961 17.6388L58.2237 17.6298Z" fill="#75797F"/>
<path d="M68.4331 18.7647C68.2001 18.8137 67.9594 18.8167 67.7252 18.7733C67.491 18.73 67.268 18.6413 67.0694 18.5125C66.8956 18.4153 66.746 18.2817 66.6314 18.1212C66.5168 17.9607 66.44 17.7774 66.4065 17.5844C66.373 17.3914 66.3837 17.1936 66.4377 17.0052C66.4918 16.8167 66.588 16.6423 66.7193 16.4945C66.948 16.1974 67.2727 15.9848 67.6407 15.8909C68.6014 15.6183 69.5904 15.4521 70.5892 15.3954C70.8086 15.3705 71.031 15.3886 71.2431 15.4488C71.4553 15.5091 71.6529 15.6101 71.8246 15.7461C71.9963 15.882 72.1384 16.0501 72.2428 16.2405C72.347 16.4309 72.4114 16.6398 72.432 16.8549C72.7199 17.9112 72.7514 19.0187 72.5241 20.0891C71.6949 23.5485 68.8385 24.7377 65.632 23.6296C64.7319 23.3333 63.9427 22.7813 63.3653 22.044C62.5952 21.1562 62.0492 20.1039 61.7713 18.972C61.5461 17.964 61.5708 16.918 61.8433 15.9213C62.1158 14.9245 62.6282 14.0059 63.3377 13.2422C64.011 12.4122 64.885 11.759 65.8808 11.3413C66.51 11.0022 67.2464 10.9058 67.9448 11.0711C68.1032 11.1139 68.247 11.1975 68.3613 11.313C68.4755 11.4285 68.5561 11.5719 68.5947 11.7281C68.6333 11.8844 68.6283 12.0478 68.5805 12.2016C68.5326 12.3554 68.4436 12.4938 68.3225 12.6026C68.0924 12.8063 67.8425 12.9873 67.5762 13.1431C66.757 13.6532 66.0442 14.3104 65.4754 15.0801C65.1025 15.5781 64.8457 16.15 64.7232 16.7554C64.6006 17.3608 64.6152 17.9852 64.7659 18.5846C64.9749 19.4018 65.4386 20.1354 66.0927 20.6836C68.1198 22.4855 70.755 20.7467 70.2943 18.2873C69.6217 18.4495 69.032 18.6206 68.4331 18.7647Z" fill="#75797F"/>
<path d="M80.8168 23.8462C77.8222 25.648 74.413 23.8462 73.6667 20.0624C73.123 17.3597 74.155 13.5759 77.767 12.1345C78.5355 11.8344 79.369 11.729 80.1903 11.8282C81.1769 12.0048 82.0821 12.4797 82.778 13.1861C83.474 13.8924 83.9257 14.7944 84.0693 15.7651C84.6775 18.9813 83.2954 22.4137 80.8168 23.8462ZM81.858 17.7831C81.8571 17.0347 81.5863 16.3105 81.0933 15.7381C80.8297 15.384 80.4487 15.1303 80.0152 15.0202C79.5816 14.9102 79.1225 14.9505 78.716 15.1345C77.0943 15.8191 75.9518 18.3056 76.3664 20.1345C76.3981 20.4215 76.4934 20.6983 76.6459 20.9455C76.7984 21.1927 77.0042 21.4043 77.2491 21.5657C77.4939 21.7269 77.7718 21.834 78.0634 21.8794C78.355 21.9247 78.6532 21.9072 78.9371 21.8282C79.7943 21.5354 80.5365 20.9882 81.0601 20.263C81.5838 19.5378 81.8627 18.6708 81.858 17.7831Z" fill="#75797F"/>
<path d="M87.0976 24.603C87.0524 24.9327 86.8752 25.2314 86.6047 25.4333C86.3343 25.6351 85.9929 25.7238 85.6557 25.6796C85.3184 25.6354 85.013 25.462 84.8065 25.1975C84.6 24.9332 84.5094 24.5994 84.5546 24.2696C84.5998 23.9399 84.7771 23.6413 85.0475 23.4393C85.318 23.2374 85.6594 23.1489 85.9966 23.1931C86.3338 23.2373 86.6393 23.4106 86.8458 23.675C87.0523 23.9395 87.1429 24.2733 87.0976 24.603ZM86.296 12.4498C86.4713 12.1881 86.7284 11.9889 87.0289 11.8817C87.3295 11.7746 87.6574 11.7653 87.9638 11.8552C88.2753 11.9314 88.5504 12.1099 88.7434 12.3609C88.9363 12.6118 89.0351 12.9199 89.0234 13.2336C88.9828 13.7368 88.9058 14.2365 88.7931 14.7291C88.489 16.3958 88.1941 18.0624 87.8717 19.7111C87.7242 20.3688 87.5308 20.9994 87.3188 21.666C87.2451 21.8744 87.1219 22.0627 86.9595 22.2156C86.8585 22.3306 86.7295 22.4187 86.5844 22.472C86.4393 22.5253 86.2828 22.5419 86.1294 22.5203C85.976 22.4988 85.8306 22.4397 85.7067 22.3487C85.5829 22.2576 85.4845 22.1375 85.4207 21.9994C85.3112 21.7516 85.2517 21.4854 85.2456 21.2156C85.2456 20.0985 85.2456 18.9724 85.3194 17.8462C85.4446 16.2391 85.691 14.6431 86.0565 13.0714C86.0995 12.8609 86.1806 12.6595 86.296 12.4769V12.4498Z" fill="#75797F"/>
<path fill-rule="evenodd" clip-rule="evenodd" d="M44.9634 31.8423C44.8546 32.0798 44.8248 32.3445 44.878 32.5993C44.9133 32.9351 44.991 33.2655 45.1092 33.5828C45.2569 33.9713 45.422 34.3555 45.6257 34.829C45.6725 34.938 45.7215 35.0517 45.7727 35.1714C46.0473 35.8129 46.3919 36.6328 46.8516 37.8193C46.9817 38.1564 47.0972 38.4962 47.2136 38.8384C47.2606 38.9766 47.3077 39.1153 47.356 39.2543C47.5291 39.7486 47.8268 40.1926 48.2216 40.5445C48.3892 40.7379 48.6115 40.8788 48.8608 40.9493C49.1149 41.0212 49.3852 41.0166 49.6366 40.9363C49.8881 40.8558 50.1089 40.7033 50.2705 40.4984C50.4289 40.2976 50.5231 40.0556 50.5414 39.8028C50.6442 39.3102 50.6091 38.7995 50.4397 38.3247C50.1709 37.5363 49.8647 36.7467 49.5115 35.9744L49.5099 35.971C48.929 34.7628 48.3385 33.5629 47.72 32.3625L47.7154 32.3541C47.5343 32.0414 47.299 31.7618 47.0201 31.528C46.839 31.3193 46.5892 31.1785 46.3133 31.13C46.0316 31.0804 45.741 31.1304 45.4935 31.2709C45.2593 31.4017 45.0737 31.6017 44.9634 31.8423Z" fill="#75797F"/>
<path fill-rule="evenodd" clip-rule="evenodd" d="M53.8361 28.8671C52.9252 28.6364 51.9739 28.6028 51.0485 28.7686C50.3317 28.8376 49.6268 28.9993 49.1372 29.3195C48.8883 29.4825 48.687 29.6917 48.575 29.9577C48.4624 30.2251 48.448 30.531 48.5403 30.8718C48.7088 31.496 48.9275 32.1029 49.1455 32.7078L49.1808 32.8058L49.1817 32.808C49.838 34.5655 50.5006 36.317 51.1693 38.0625C51.2472 38.3376 51.3575 38.603 51.4978 38.8533L51.5005 38.8579C51.6858 39.1688 51.9236 39.4469 52.2037 39.6805C52.3438 39.809 52.5171 39.8978 52.7049 39.9375C52.8946 39.9776 53.0919 39.966 53.2753 39.9039C53.4587 39.8418 53.6211 39.7317 53.7449 39.5855C53.8667 39.4417 53.9465 39.2684 53.9757 39.0841C54.0966 38.5832 54.0579 38.0581 53.8647 37.5793C53.8044 37.4182 53.7571 37.2536 53.7073 37.0802C53.6907 37.0224 53.6738 36.9636 53.6561 36.9037C55.1866 36.3188 56.8151 35.5322 57.3878 33.7024C57.612 33.0701 57.6307 32.3854 57.4413 31.7422C57.2516 31.0982 56.8626 30.5275 56.3277 30.1085C55.5997 29.522 54.7493 29.0983 53.8361 28.8671ZM51.3112 31.1115C51.3414 31.103 51.3717 31.0951 51.4022 31.0877C52.3986 30.9346 53.4181 31.1387 54.2729 31.6623C54.6496 31.9184 54.8039 32.203 54.8304 32.4769C54.8577 32.7588 54.7529 33.0644 54.5422 33.3581C54.1442 33.9129 53.4178 34.357 52.7617 34.4397C52.2834 33.3627 51.7977 32.2421 51.3112 31.1115Z" fill="#75797F"/>
<path d="M59.9091 26.896C60.9938 26.4062 62.3375 26.3216 63.389 26.666C63.6538 26.7414 63.8835 26.9045 64.0389 27.1274C64.1933 27.349 64.2646 27.6159 64.2408 27.8828C64.2392 28.0561 64.1957 28.2266 64.1139 28.3803C64.0306 28.5369 63.91 28.6715 63.7622 28.7729C63.6145 28.8742 63.4439 28.9393 63.265 28.9626C63.0861 28.9859 62.9041 28.9668 62.7343 28.9067L62.7214 28.9022L62.7093 28.8959C62.6224 28.8515 62.5302 28.818 62.4347 28.7962L62.4287 28.7949C61.6891 28.6028 60.9914 28.9211 60.7365 29.3122C60.615 29.4986 60.5999 29.6869 60.7011 29.8581C60.8095 30.0415 61.0754 30.2472 61.6135 30.3939C61.7615 30.4336 61.9131 30.4719 62.067 30.5109C62.4925 30.6186 62.9346 30.7305 63.3622 30.8856L63.3638 30.8862C65.3363 31.62 66.0707 33.1397 65.8193 34.5691C65.5705 35.9827 64.3632 37.2691 62.5475 37.5725C61.8868 37.7157 61.1992 37.6878 60.5528 37.4916C59.9048 37.2948 59.3207 36.9357 58.8586 36.4498L58.8465 36.4372C58.7006 36.2541 58.6025 36.0391 58.559 35.8109C58.5189 35.6049 58.54 35.3921 58.6196 35.1975C58.6988 35.004 58.8326 34.8365 59.0053 34.7145C59.1877 34.5762 59.4077 34.4932 59.6379 34.4759C59.8673 34.4587 60.0969 34.5074 60.2983 34.6161C60.4995 34.7111 60.6867 34.8324 60.8547 34.9766L60.8578 34.9792C61.155 35.2449 61.5146 35.3142 61.8594 35.25C62.2092 35.185 62.5381 34.9826 62.7497 34.7141C62.9599 34.4472 63.0443 34.1303 62.9441 33.8226C62.8434 33.5126 62.5404 33.1654 61.8747 32.8751C61.7006 32.8028 61.5202 32.7445 61.3325 32.6878C61.2819 32.6725 61.2304 32.6573 61.1784 32.6418C61.0396 32.6007 60.8968 32.5582 60.7568 32.5115C60.6603 32.4793 60.5647 32.4489 60.4699 32.4187C60.211 32.3362 59.9585 32.2559 59.7156 32.1481C59.1868 31.972 58.73 31.6341 58.4131 31.1841C58.0949 30.7324 57.9348 30.1921 57.9566 29.6441C57.9583 28.3086 58.8185 27.3885 59.9091 26.896Z" fill="#75797F"/>
<path d="M73.6615 26.7532C73.4512 26.6528 73.2186 26.6051 72.9848 26.6144C72.7509 26.6239 72.5231 26.69 72.3219 26.8071C72.122 26.9233 71.9547 27.086 71.8347 27.2808C71.7248 27.4449 71.6487 27.6283 71.6107 27.821C71.5728 28.0135 71.5737 28.2113 71.6133 28.4033C71.6525 28.6501 71.696 28.8901 71.7388 29.1268C71.8099 29.5185 71.8789 29.9014 71.9245 30.2918L71.9262 30.3017C72.03 30.9139 72.0843 31.5331 72.0892 32.1536L72.0897 32.1624C72.1251 32.8325 71.8916 33.4895 71.4392 33.9941L71.432 34.0031C71.2848 34.1875 71.088 34.3283 70.8635 34.4097C70.6391 34.4911 70.396 34.5098 70.1613 34.4637C69.9266 34.4177 69.7097 34.3087 69.5348 34.149C69.3598 33.9893 69.2337 33.7845 69.1707 33.5588C69.0362 33.083 68.9584 32.5936 68.9386 32.1005L69.1683 28.5256C69.1717 28.4789 69.1755 28.431 69.1795 28.3827C69.1882 28.2741 69.1972 28.1635 69.2009 28.0604C69.2063 27.9086 69.2017 27.7525 69.1655 27.6048C69.1285 27.4538 69.0581 27.3101 68.9332 27.1878C68.8096 27.0667 68.6427 26.9774 68.4326 26.9166C68.0529 26.8091 67.7317 26.8125 67.4641 26.9235C67.1964 27.0346 67.0129 27.2407 66.8831 27.4789C66.7543 27.715 66.6715 27.9946 66.6089 28.2746C66.5625 28.4824 66.5252 28.7006 66.4897 28.9082C66.4774 28.9798 66.4654 29.05 66.4533 29.1182L66.453 29.1202C66.2632 30.2589 66.2067 31.4151 66.2846 32.5663C66.2991 33.1884 66.4318 33.8025 66.676 34.3772C66.9515 35.1187 67.4504 35.7611 68.107 36.2197C68.765 36.6793 69.5502 36.9325 70.3586 36.9459C71.167 36.9592 71.9605 36.7321 72.634 36.2947C73.3065 35.8579 73.8276 35.2318 74.1285 34.4993C74.5494 33.5663 74.7471 32.5515 74.7063 31.5325C74.6815 30.7885 74.6401 30.0388 74.5989 29.2929C74.5787 28.927 74.5585 28.5619 74.5404 28.199C74.5313 27.8351 74.4086 27.4827 74.1887 27.189C74.0526 27.0033 73.8715 26.8535 73.6615 26.7532Z" fill="#75797F"/>
<path d="M81.106 32.3589C81.0847 32.3855 81.0622 32.4129 81.0387 32.4414C80.8677 31.4764 80.7091 30.5117 80.5503 29.5456C80.4933 29.199 80.4361 28.8508 80.3785 28.5037L80.372 28.465L80.351 28.4316C80.3114 28.3686 80.3074 28.3068 80.3074 28.1752V28.16L80.305 28.1449C80.2621 27.873 80.1363 27.6199 79.9441 27.4188C79.7525 27.2183 79.5036 27.0788 79.2298 27.0182C78.9565 26.9523 78.6692 26.9668 78.4043 27.06C78.14 27.1529 77.9097 27.32 77.742 27.5402C77.6026 27.7092 77.4883 27.8967 77.4027 28.097C77.2083 28.5285 77.0123 28.961 76.8157 29.3948L76.8123 29.4023C76.3215 30.4851 75.8275 31.5752 75.3478 32.6738L75.3463 32.6774C75.0518 33.3898 74.8087 34.1404 74.5664 34.8887C74.5181 35.0381 74.4697 35.1874 74.4209 35.3363C74.3335 35.5724 74.2952 35.8232 74.3084 36.074C74.2924 36.2985 74.3474 36.5224 74.4659 36.7155C74.5868 36.9126 74.7678 37.0676 74.9835 37.1588C75.2121 37.2568 75.4676 37.2776 75.7097 37.2179C75.9513 37.1584 76.1658 37.0221 76.3195 36.8304C76.5157 36.5943 76.6846 36.3369 76.8223 36.0641C77.2286 35.2513 77.617 34.4287 78.0036 33.6096C78.1532 33.2928 78.2986 33.009 78.4639 32.7C78.4753 32.7381 78.4869 32.7753 78.4989 32.8125C78.6722 33.5586 78.9647 34.2732 79.3657 34.9302C79.4416 35.0694 79.5473 35.191 79.6756 35.2867C79.8054 35.3836 79.9552 35.4516 80.1146 35.4862C80.274 35.5207 80.4393 35.5209 80.5987 35.4866C80.758 35.4525 80.9083 35.3844 81.0382 35.288L81.2953 35.0998L83.2907 33.4565L83.1727 34.1917C83.0107 35.2024 82.85 36.2046 82.6792 37.207C82.5675 37.6514 82.5677 38.1155 82.6797 38.5596C82.7282 38.8096 82.8519 39.0397 83.0348 39.2207C83.2194 39.4031 83.4557 39.5271 83.7131 39.5765C83.9706 39.6259 84.2374 39.5986 84.4787 39.4979C84.7165 39.3987 84.9188 39.2329 85.0602 39.0216C85.3893 38.6224 85.594 38.1393 85.6503 37.6295C85.735 36.9096 85.8306 36.1799 85.9264 35.4505C86.0367 34.6097 86.1469 33.7691 86.24 32.9447L86.2403 32.9421C86.33 32.0397 86.3733 31.1335 86.3703 30.2268C86.3899 29.9402 86.317 29.6548 86.1615 29.4108C86.0055 29.166 85.7745 28.9757 85.5014 28.8668C85.2173 28.7406 84.8994 28.7068 84.5942 28.7706C84.2911 28.834 84.0167 28.9902 83.8108 29.2166C83.4428 29.5494 83.0975 29.9055 82.7772 30.2827L82.775 30.2853C82.4254 30.7113 82.0781 31.1456 81.7331 31.5772C81.5233 31.8395 81.3141 32.1012 81.106 32.3589Z" fill="#75797F"/>
</g>
<defs>
<clipPath id="clip0_71_175">
<rect width="54.0909" height="34" fill="white" transform="translate(40 7)"/>
</clipPath>
</defs>
</svg>
