<svg width="135" height="48" viewBox="0 0 135 48" fill="none" xmlns="http://www.w3.org/2000/svg">
<g clip-path="url(#clip0_71_131)">
<path d="M87.8536 10.0793C87.8536 10.3655 87.7399 10.64 87.5375 10.8424C87.3351 11.0448 87.0606 11.1585 86.7743 11.1585C86.4881 11.1585 86.2136 11.0448 86.0112 10.8424C85.8088 10.64 85.6951 10.3655 85.6951 10.0793C85.6951 9.79303 85.8088 9.51851 86.0112 9.31611C86.2136 9.11371 86.4881 9 86.7743 9C87.0606 9 87.3351 9.11371 87.5375 9.31611C87.7399 9.51851 87.8536 9.79303 87.8536 10.0793Z" fill="#75797F"/>
<path fill-rule="evenodd" clip-rule="evenodd" d="M58.8933 38.352C53.4293 38.352 49 33.9227 49 28.4587V9.71973H52.5976V28.4587C52.5976 30.1284 53.2609 31.7298 54.4415 32.9105C55.6222 34.0911 57.2236 34.7544 58.8933 34.7544C62.4139 34.7544 65.189 32.0412 65.189 28.6069H68.7866V34.0033C68.7866 34.2418 68.8813 34.4706 69.05 34.6392C69.2187 34.8079 69.4474 34.9027 69.686 34.9027C69.9245 34.9027 70.1533 34.8079 70.3219 34.6392C70.4906 34.4706 70.5854 34.2418 70.5854 34.0033V27.6176C69.9319 27.751 69.257 27.7373 68.6095 27.5777C67.962 27.4181 67.358 27.1164 66.8415 26.6945C66.325 26.2727 65.9087 25.7412 65.6229 25.1387C65.3371 24.5361 65.1889 23.8775 65.189 23.2106V14.2167C65.189 13.024 65.6628 11.8802 66.5061 11.0369C67.3495 10.1935 68.4933 9.71973 69.686 9.71973C70.8786 9.71973 72.0225 10.1935 72.8658 11.0369C73.7091 11.8802 74.1829 13.024 74.1829 14.2167V34.0033C74.1829 34.2418 74.2777 34.4706 74.4464 34.6392C74.615 34.8079 74.8438 34.9027 75.0823 34.9027C75.3208 34.9027 75.5496 34.8079 75.7183 34.6392C75.8869 34.4706 75.9817 34.2418 75.9817 34.0033V14.2167C75.9817 13.024 76.4555 11.8802 77.2988 11.0369C78.1422 10.1935 79.286 9.71973 80.4787 9.71973C81.6713 9.71973 82.8151 10.1935 83.6585 11.0369C84.5018 11.8802 84.9756 13.024 84.9756 14.2167V34.0033C84.9756 34.8384 84.743 35.657 84.304 36.3674C83.8649 37.0779 83.2367 37.652 82.4898 38.0255C81.7428 38.3989 80.9066 38.557 80.0748 38.482C79.243 38.407 78.4486 38.1019 77.7805 37.6008C77.0028 38.1859 76.0556 38.5017 75.0823 38.5002C74.1091 38.5017 73.1619 38.1859 72.3841 37.6008C71.8429 38.0067 71.2171 38.2853 70.5533 38.4157C69.8895 38.5462 69.2048 38.5253 68.5502 38.3545C67.8956 38.1837 67.2879 37.8674 66.7725 37.4292C66.2571 36.991 65.8472 36.4422 65.5732 35.8236C63.8061 37.4044 61.4555 38.352 58.8933 38.352ZM80.4787 34.9027C79.9822 34.9027 79.5793 34.4997 79.5793 34.0033V14.2167C79.5793 13.9781 79.674 13.7494 79.8427 13.5807C80.0114 13.412 80.2401 13.3173 80.4787 13.3173C80.7172 13.3173 80.946 13.412 81.1146 13.5807C81.2833 13.7494 81.378 13.9781 81.378 14.2167V34.0033C81.378 34.4997 80.9751 34.9027 80.4787 34.9027ZM70.5854 23.2106C70.5854 23.4491 70.4906 23.6779 70.3219 23.8465C70.1533 24.0152 69.9245 24.11 69.686 24.11C69.4474 24.11 69.2187 24.0152 69.05 23.8465C68.8813 23.6779 68.7866 23.4491 68.7866 23.2106V14.2167C68.7866 13.9781 68.8813 13.7494 69.05 13.5807C69.2187 13.412 69.4474 13.3173 69.686 13.3173C69.9245 13.3173 70.1533 13.412 70.3219 13.5807C70.4906 13.7494 70.5854 13.9781 70.5854 14.2167V23.2106Z" fill="#75797F"/>
<path fill-rule="evenodd" clip-rule="evenodd" d="M54.3962 28.6069C54.3962 29.7996 54.87 30.9434 55.7134 31.7867C56.5567 32.6301 57.7005 33.1039 58.8932 33.1039C60.0859 33.1039 61.2297 32.6301 62.073 31.7867C62.9164 30.9434 63.3901 29.7996 63.3901 28.6069V14.2167C63.3901 13.024 62.9164 11.8802 62.073 11.0369C61.2297 10.1935 60.0859 9.71973 58.8932 9.71973C57.7005 9.71973 56.5567 10.1935 55.7134 11.0369C54.87 11.8802 54.3962 13.024 54.3962 14.2167V28.6069ZM58.8932 29.5063C58.3967 29.5063 57.9938 29.1034 57.9938 28.6069V14.2167C57.9938 13.9781 58.0886 13.7494 58.2572 13.5807C58.4259 13.412 58.6547 13.3173 58.8932 13.3173C59.1317 13.3173 59.3605 13.412 59.5292 13.5807C59.6978 13.7494 59.7926 13.9781 59.7926 14.2167V28.6069C59.7926 29.1034 59.3897 29.5063 58.8932 29.5063Z" fill="#75797F"/>
</g>
<defs>
<clipPath id="clip0_71_131">
<rect width="38.8537" height="29.5" fill="white" transform="translate(49 9)"/>
</clipPath>
</defs>
</svg>
