<svg width="135" height="48" viewBox="0 0 135 48" fill="none" xmlns="http://www.w3.org/2000/svg">
<g clip-path="url(#clip0_71_113)">
<path fill-rule="evenodd" clip-rule="evenodd" d="M32.2443 27.5227C31.6039 27.5227 30.9897 27.2683 30.5368 26.8155C30.084 26.3626 29.8295 25.7484 29.8295 25.108V14H25V25.108C25 29.1087 28.2435 32.3523 32.2443 32.3523H37.5568V27.5227H32.2443ZM46.733 18.8295C46.1622 18.8295 45.5969 18.942 45.0696 19.1604C44.5422 19.3788 44.0631 19.699 43.6594 20.1026C43.2558 20.5063 42.9357 20.9854 42.7172 21.5128C42.4988 22.0401 42.3864 22.6053 42.3864 23.1761C42.3864 23.7469 42.4988 24.3122 42.7172 24.8395C42.9357 25.3669 43.2558 25.846 43.6594 26.2496C44.0631 26.6533 44.5422 26.9734 45.0696 27.1919C45.5969 27.4103 46.1622 27.5227 46.733 27.5227C47.8857 27.5227 48.9913 27.0648 49.8065 26.2496C50.6216 25.4345 51.0795 24.3289 51.0795 23.1761C51.0795 22.0233 50.6216 20.9178 49.8065 20.1026C48.9913 19.2875 47.8857 18.8295 46.733 18.8295ZM37.5568 23.1761C37.5568 18.1085 41.6653 14 46.733 14C51.8006 14 55.9091 18.1085 55.9091 23.1761C55.9091 28.2438 51.8006 32.3523 46.733 32.3523C41.6653 32.3523 37.5568 28.2438 37.5568 23.1761ZM98.892 18.8295C97.7393 18.8295 96.6337 19.2875 95.8185 20.1026C95.0034 20.9178 94.5454 22.0233 94.5454 23.1761C94.5454 24.3289 95.0034 25.4345 95.8185 26.2496C96.6337 27.0648 97.7393 27.5227 98.892 27.5227C100.045 27.5227 101.15 27.0648 101.966 26.2496C102.781 25.4345 103.239 24.3289 103.239 23.1761C103.239 22.0233 102.781 20.9178 101.966 20.1026C101.15 19.2875 100.045 18.8295 98.892 18.8295ZM89.7159 23.1761C89.7159 18.1085 93.8244 14 98.892 14C103.96 14 108.068 18.1085 108.068 23.1761C108.068 28.2438 103.96 32.3523 98.892 32.3523C93.8244 32.3523 89.7159 28.2438 89.7159 23.1761ZM66.0511 14C60.9835 14 56.875 18.1085 56.875 23.1761C56.875 28.2438 60.9835 32.3523 66.0511 32.3523H79.5739C80.5248 32.3523 81.4419 32.2074 82.3045 31.9389L84.8864 33.3182L87.672 28.1003C88.3797 26.7721 88.7499 25.2902 88.75 23.7851V23.1761C88.75 18.1085 84.6415 14 79.5739 14H66.0511ZM83.9204 23.1761C83.9204 22.0233 83.4625 20.9178 82.6474 20.1026C81.8322 19.2875 80.7266 18.8295 79.5739 18.8295H66.0511C65.4803 18.8295 64.9151 18.942 64.3878 19.1604C63.8604 19.3788 63.3812 19.699 62.9776 20.1026C62.574 20.5063 62.2538 20.9854 62.0354 21.5128C61.817 22.0401 61.7045 22.6053 61.7045 23.1761C61.7045 23.7469 61.817 24.3122 62.0354 24.8395C62.2538 25.3669 62.574 25.846 62.9776 26.2496C63.3812 26.6533 63.8604 26.9734 64.3878 27.1919C64.9151 27.4103 65.4803 27.5227 66.0511 27.5227H79.5739C80.7208 27.5228 81.8213 27.0695 82.6355 26.2616C83.4497 25.4538 83.9115 24.3569 83.9204 23.2099V23.1761Z" fill="#75797F"/>
<path d="M110 15.2074C110 15.5276 109.873 15.8347 109.647 16.0611C109.42 16.2876 109.113 16.4148 108.793 16.4148C108.473 16.4148 108.166 16.2876 107.939 16.0611C107.713 15.8347 107.585 15.5276 107.585 15.2074C107.585 14.8872 107.713 14.5801 107.939 14.3536C108.166 14.1272 108.473 14 108.793 14C109.113 14 109.42 14.1272 109.647 14.3536C109.873 14.5801 110 14.8872 110 15.2074Z" fill="#75797F"/>
</g>
<defs>
<clipPath id="clip0_71_113">
<rect width="85" height="19.3182" fill="white" transform="translate(25 14)"/>
</clipPath>
</defs>
</svg>
